<?xml version="1.0" encoding="utf-8"?>
<!-- Generator: Adobe Illustrator 22.1.0, SVG Export Plug-In . SVG Version: 6.00 Build 0)  -->
<svg version="1.1" id="Layer_1" xmlns="http://www.w3.org/2000/svg" xmlns:xlink="http://www.w3.org/1999/xlink" x="0px" y="0px"
	 viewBox="0 0 34 34" style="enable-background:new 0 0 34 34;" xml:space="preserve">
<style type="text/css">
	.st0{fill:#111111;}
	.st1{stroke:#FFFFFF;stroke-miterlimit:10;}
	.st2{stroke:#FFFFFF;stroke-width:2;stroke-miterlimit:10;}
</style>
<path d="M34,17c0-1.8-1.5-3.3-3.3-3.3h-1.2V4.3c0-0.3-0.1-0.5-0.3-0.7l-3.2-3.2C25.7,0.1,25.5,0,25.2,0H5.6c-0.6,0-1,0.5-1,1v12.7
	H3.3C1.5,13.7,0,15.2,0,17v7l0,0c0,0,0,0,0,0c0,0.5,0.4,0.9,0.9,0.9l0,0h3.6V33c0,0.6,0.5,1,1,1h22.8c0.6,0,1-0.5,1-1v-8.1h3.6l0,0
	c0,0,0,0,0,0c0.5,0,0.9-0.4,0.9-0.9c0,0,0,0,0,0l0,0V17z M27.4,32H6.6v-9.4h20.8V32z M27.4,16H6.6V2.1h16.2v3.6l0,0
	c0,0.5,0.4,0.9,0.9,0.9l0,0h3.6V16z M29.9,19.9c-0.8,0-1.4-0.6-1.4-1.4c0-0.8,0.6-1.4,1.4-1.4c0.8,0,1.4,0.6,1.4,1.4
	C31.3,19.2,30.7,19.9,29.9,19.9z"/>
</svg>
