<svg xmlns="http://www.w3.org/2000/svg" viewBox="0 0 40 40"><defs><style>.cls-1,.cls-3{fill:#fff;}.cls-2{fill:none;}.cls-2,.cls-3{stroke:#231f20;stroke-miterlimit:10;stroke-width:1.5px;}</style></defs><title>Asset 10</title><g id="Layer_2" data-name="Layer 2"><g id="Layer_1-2" data-name="Layer 1"><rect class="cls-1" width="40" height="40"/><line class="cls-2" x1="14.73" y1="33.43" x2="4.46" y2="33.43"/><path class="cls-2" d="M29.37,10.81V8.66a2.1,2.1,0,0,0-2.1-2.09H3.47a2.1,2.1,0,0,0-2.1,2.09V26.51a2.11,2.11,0,0,0,2.1,2.1H11v4.74"/><polyline class="cls-3" points="17.95 17.56 17.95 11.57 34.74 11.57 34.74 17.25"/><path class="cls-2" d="M14.07,24V19a1.85,1.85,0,0,1,1.84-1.85H36.78A1.85,1.85,0,0,1,38.63,19v8a1.85,1.85,0,0,1-1.85,1.84H21.28"/><rect class="cls-3" x="17.95" y="23.28" width="16.79" height="10.07"/></g></g></svg>